<svg width="546" height="494" viewBox="0 0 546 494" fill="none" xmlns="http://www.w3.org/2000/svg">
<g clip-path="url(#clip0_5_29)">
<path d="M442.269 88.3391C479.316 126.295 501.866 168.265 521.195 213.52C540.121 258.409 555.021 306.584 538.108 342.715C521.195 378.481 472.067 402.568 427.772 428.48C383.074 454.027 342.805 481.764 295.691 490.158C248.98 498.552 195.02 487.968 134.617 466.8C74.2141 445.633 6.96567 414.246 0.522702 370.816C-5.92026 327.751 48.845 272.278 74.2141 210.965C99.5833 149.287 95.5565 81.4049 128.979 41.9895C162 2.93897 232.47 -7.27986 292.872 4.76375C353.678 16.4424 405.222 50.3835 442.269 88.3391Z" fill="#B2DFD6"/>
</g>
<defs>
<clipPath id="clip0_5_29">
<rect width="546" height="494" fill="white"/>
</clipPath>
</defs>
</svg>
